<svg xmlns="http://www.w3.org/2000/svg" version="1.1" xmlns:xlink="http://www.w3.org/1999/xlink" xmlns:svgjs="http://svgjs.dev/svgjs" width="2000" height="2000" viewBox="0 0 2000 2000"><g transform="matrix(1,0,0,1,-0.28443113772425477,-0.28443113772459583)"><svg viewBox="0 0 334 334" data-background-color="#ffffff" preserveAspectRatio="xMidYMid meet" height="2000" width="2000" xmlns="http://www.w3.org/2000/svg" xmlns:xlink="http://www.w3.org/1999/xlink"><g id="tight-bounds" transform="matrix(1,0,0,1,0.04749999999998522,0.04750000000001364)"><svg viewBox="0 0 333.90454557049503 333.90454557049503" height="333.90454557049503" width="333.90454557049503"><g><svg></svg></g><g><svg viewBox="0 0 333.90454557049503 333.90454557049503" height="333.90454557049503" width="333.90454557049503"><g><path d="M0 166.952c0-92.205 74.747-166.952 166.952-166.952 92.205 0 166.952 74.747 166.953 166.952 0 92.205-74.747 166.952-166.953 166.953-92.205 0-166.952-74.747-166.952-166.953zM166.952 329.586c89.82 0 162.634-72.814 162.634-162.634 0-89.82-72.814-162.634-162.634-162.633-89.82 0-162.634 72.814-162.633 162.633 0 89.82 72.814 162.634 162.633 162.634z" data-fill-palette-color="tertiary" fill="#6b7280" stroke="transparent"></path><ellipse rx="160.27418187383762" ry="160.27418187383762" cx="166.95227278524752" cy="166.95227278524752" fill="#6b7280" stroke="transparent" stroke-width="0" fill-opacity="1" data-fill-palette-color="tertiary"></ellipse></g><g transform="matrix(1,0,0,1,75.32156871058707,71.17305217166896)"><svg viewBox="0 0 183.26140814932089 191.55844122715712" height="191.55844122715712" width="183.26140814932089"><g><svg viewBox="0 0 213.1584412271571 222.8090417302412" height="191.55844122715712" width="183.26140814932089"><g transform="matrix(1,0,0,1,0,167.107839620521)"><svg viewBox="0 0 213.1584412271571 55.70120210972022" height="55.70120210972022" width="213.1584412271571"><g id="textblocktransform"><svg viewBox="0 0 213.1584412271571 55.70120210972022" height="55.70120210972022" width="213.1584412271571" id="textblock"><g><svg viewBox="0 0 213.1584412271571 55.70120210972022" height="55.70120210972022" width="213.1584412271571"><g transform="matrix(1,0,0,1,0,0)"><svg width="213.1584412271571" viewBox="3.91 -35.62 138.64000000000001 36.23" height="55.70120210972022" data-palette-color="#ffffff"><path d="M22.22 0L9.94 0Q7.42 0 6.12-0.63 4.81-1.27 4.36-2.71 3.91-4.15 3.91-6.54L3.91-6.54 3.91-28.47Q3.91-30.91 4.36-32.34 4.81-33.76 6.12-34.39 7.42-35.01 9.94-35.01L9.94-35.01 21.41-35.01Q22-35.01 22.29-34.81L22.29-34.81Q22.92-34.38 23.61-33.76 24.29-33.15 25.05-32.3L25.05-32.3Q25.29-31.98 25.29-31.79L25.29-31.79Q25.29-31.57 25.05-31.3L25.05-31.3Q24.29-30.44 23.61-29.83 22.92-29.22 22.29-28.78L22.29-28.78Q21.95-28.59 21.41-28.59L21.41-28.59 14.58-28.59Q12.96-28.59 12.38-27.91 11.79-27.22 11.79-25.56L11.79-25.56 11.79-20.83 20.56-20.83Q21.14-20.83 21.44-20.63L21.44-20.63Q22.07-20.19 22.75-19.58 23.44-18.97 24.19-18.12L24.19-18.12Q24.44-17.8 24.44-17.6L24.44-17.6Q24.44-17.38 24.19-17.11L24.19-17.11Q23.44-16.26 22.75-15.65 22.07-15.04 21.44-14.6L21.44-14.6Q21.09-14.4 20.56-14.4L20.56-14.4 11.79-14.4 11.79-9.47Q11.79-7.84 12.38-7.13 12.96-6.42 14.58-6.42L14.58-6.42 22.22-6.42Q22.8-6.42 23.1-6.23L23.1-6.23Q23.73-5.79 24.41-5.18 25.1-4.57 25.85-3.71L25.85-3.71Q26.1-3.39 26.1-3.2L26.1-3.2Q26.1-2.98 25.85-2.71L25.85-2.71Q25.1-1.86 24.41-1.25 23.73-0.63 23.1-0.2L23.1-0.2Q22.75 0 22.22 0L22.22 0ZM50.85-14.01L51.05-14.01Q51.39-15.33 51.79-16.61 52.19-17.9 52.78-19.48L52.78-19.48Q53.29-20.9 54.03-22.74 54.76-24.58 55.58-26.49 56.39-28.39 57.18-30.03 57.96-31.67 58.59-32.64L58.59-32.64Q59.37-33.84 60.29-34.42 61.2-35.01 62.99-35.01L62.99-35.01 66.18-35.01Q67.45-35.01 68.32-34.63 69.19-34.25 69.55-32.84L69.55-32.84Q69.82-31.79 70.07-29.76 70.31-27.73 70.48-24.15 70.65-20.56 70.75-14.93 70.85-9.3 70.85-1.03L70.85-1.03Q70.85-0.59 70.55-0.29 70.26 0 69.85 0L69.85 0 64.28 0Q63.86 0 63.57-0.29 63.28-0.59 63.28-1.05L63.28-1.05Q63.28-7.5 63.28-11.99 63.28-16.48 63.25-19.43 63.23-22.39 63.19-24.13 63.16-25.88 63.08-26.83L63.08-26.83 62.94-26.83Q61.64-23.85 60.18-20.2 58.71-16.55 57.32-12.68 55.93-8.81 54.83-5.13L54.83-5.13Q54.51-4.03 54.04-3.6 53.56-3.17 51.88-3.17L51.88-3.17 49.07-3.17Q47.63-3.17 47.15-3.54 46.68-3.91 46.34-5.13L46.34-5.13Q45.53-7.91 44.55-11.01 43.58-14.11 42.54-17.1 41.5-20.09 40.54-22.62 39.57-25.15 38.82-26.83L38.82-26.83 38.67-26.83Q38.47-23.95 38.33-19.82 38.18-15.7 38.1-10.86 38.01-6.03 37.99-1L37.99-1Q37.99-0.56 37.69-0.28 37.4 0 36.98 0L36.98 0 31.98 0Q31.56 0 31.27-0.29 30.98-0.59 30.98-1.05L30.98-1.05Q31-14.06 31.5-21.83 32-29.59 32.59-32.23L32.59-32.23Q32.98-33.96 33.97-34.48 34.96-35.01 36.23-35.01L36.23-35.01 40.18-35.01Q41.53-35.01 42.15-34.53 42.77-34.06 43.67-32.69L43.67-32.69Q44.21-31.88 44.96-30.27 45.7-28.66 46.51-26.7 47.31-24.73 48.03-22.81 48.75-20.9 49.22-19.48L49.22-19.48Q49.7-18.04 50.12-16.69 50.53-15.33 50.85-14.01L50.85-14.01ZM93.11-5.98L93.11-5.98Q94.89-5.98 95.91-6.35 96.92-6.71 97.48-7.25 98.04-7.79 98.46-8.33L98.46-8.33Q98.85-8.81 99.1-9.06 99.36-9.3 99.82-9.4L99.82-9.4Q100.21-9.52 101.08-9.56 101.95-9.59 102.81-9.59 103.68-9.59 104.02-9.55L104.02-9.55Q104.54-9.52 104.73-9.35L104.73-9.35Q104.93-9.18 104.98-8.62L104.98-8.62Q105.05-7.84 105.06-6.76 105.07-5.69 105.02-4.91L105.02-4.91Q105-4.66 104.94-4.49 104.88-4.32 104.68-3.98L104.68-3.98Q104.44-3.59 103.73-2.84 103.02-2.1 101.66-1.31 100.29-0.51 98.13 0.05 95.97 0.61 92.82 0.61L92.82 0.61Q89.45 0.61 86.52-0.26 83.59-1.12 81.38-3.17 79.17-5.22 77.94-8.72 76.7-12.21 76.7-17.43L76.7-17.43Q76.7-23.24 78.72-27.31 80.73-31.37 84.44-33.5 88.15-35.62 93.23-35.62L93.23-35.62Q96.8-35.62 98.96-34.89 101.12-34.16 102.24-33.17 103.36-32.18 103.83-31.45L103.83-31.45Q104-31.18 104.07-30.97 104.15-30.76 104.17-30.32L104.17-30.32Q104.24-29.74 104.21-28.61 104.17-27.49 104.02-26.64L104.02-26.64Q103.93-26.1 103.71-25.93L103.71-25.93Q103.61-25.83 103.36-25.76 103.12-25.68 102.63-25.68L102.63-25.68Q101.85-25.68 100.87-25.74 99.9-25.81 99.41-25.88L99.41-25.88Q98.82-25.98 98.55-26.16 98.29-26.34 98.02-26.73L98.02-26.73Q97.58-27.37 96.5-28.2 95.43-29.03 92.96-29.03L92.96-29.03Q89.5-29.03 87.25-26.35 85-23.68 85-17.7L85-17.7Q85-11.74 87.36-8.86 89.72-5.98 93.11-5.98ZM125.46 0.61L125.46 0.61Q120.38 0.61 116.62-1.34 112.86-3.3 110.8-7.23 108.73-11.16 108.73-17.04L108.73-17.04Q108.73-26.39 113.3-30.99 117.86-35.6 126.02-35.6L126.02-35.6Q133.66-35.6 138.1-31.09 142.55-26.59 142.55-17.75L142.55-17.75Q142.55-11.5 140.47-7.43 138.4-3.37 134.56-1.38 130.73 0.61 125.46 0.61ZM125.6-5.98L125.6-5.98Q130-5.98 132.12-9.13 134.25-12.28 134.25-17.31L134.25-17.31Q134.25-23.14 132.24-26.07 130.24-29 125.8-29L125.8-29Q117.03-29 117.03-17.46L117.03-17.46Q117.03-12.3 119.15-9.14 121.26-5.98 125.6-5.98Z" opacity="1" transform="matrix(1,0,0,1,0,0)" fill="#ffffff" class="wordmark-text-0" data-fill-palette-color="quaternary" id="text-0"></path></svg></g></svg></g></svg></g></svg></g><g transform="matrix(1,0,0,1,54.949111754757816,0)"><svg viewBox="0 0 103.26021771764148 153.9581226312667" height="153.9581226312667" width="103.26021771764148"><g><svg xmlns="http://www.w3.org/2000/svg" xmlns:xlink="http://www.w3.org/1999/xlink" version="1.1" x="0" y="0" viewBox="27.69737049160954 12.012 50.172629508390465 74.806" enable-background="new 0 0 100 100" xml:space="preserve" height="153.9581226312667" width="103.26021771764148" class="icon-icon-0" data-fill-palette-color="quaternary" id="icon-0"><path d="M73.895 14.562A14 14 0 0 1 72.612 18.774 14 14 0 0 1 75.026 18.23C76.873 16.128 77.598 14.052 77.87 12.958A10.1 10.1 0 0 0 73.895 14.562M68.661 21.808C72.586 18.569 72.896 13.995 72.818 12.012A15.4 15.4 0 0 0 70.159 14.213C70.171 15.991 69.934 18.854 68.661 21.808M71.494 20.617L71.484 20.624A12 12 0 0 1 69.726 22.52C70.861 22.242 72.275 22.02 73.966 21.965A17 17 0 0 0 77.241 19.312C73.441 19.36 71.516 20.604 71.494 20.617M63.079 27.079C68.85 22.616 69.06 16.002 68.914 13.541A20.5 20.5 0 0 0 65.346 16.402C65.383 18.796 65.082 22.929 63.079 27.079M66.915 24.922C66.9 24.931 66.889 24.94 66.875 24.947A15.7 15.7 0 0 1 64.441 27.564C66.054 27.123 68.179 26.75 70.818 26.7A22.7 22.7 0 0 0 74.939 23.192H74.779C69.544 23.191 66.943 24.903 66.915 24.922M61.268 30.184L61.2 30.225A20.1 20.1 0 0 1 57.17 34.317C57.037 34.76 56.894 35.205 56.732 35.651 58.66 34.426 62.248 32.667 67.786 31.826A30 30 0 0 0 72.033 27.942C64.92 27.809 61.307 30.159 61.268 30.184M57.686 32.29C64.262 26.38 64.29 18.222 64.082 15.455 61.277 17.215 59.219 19.127 57.693 21.026 58.174 23.44 58.663 27.636 57.686 32.29M51.068 42.557C58.9 34.013 57.023 23.343 56.236 20.194 53.519 22.621 51.568 25.081 50.173 27.473 51.07 30.493 52.259 36.187 51.068 42.557M55.84 37.851A0.5 0.5 0 0 1 55.756 37.919C54.583 40.302 52.902 42.668 50.54 44.857 50.523 44.919 50.509 44.98 50.491 45.042 52.527 43.437 56.554 40.904 63.138 39.299A34.5 34.5 0 0 0 68.076 33.037C59.611 34.299 55.878 37.814 55.84 37.851M48.583 26.579C45.842 29.467 43.884 32.317 42.5 35.028 43.861 38.317 46.046 45.028 45.308 52.867 53.17 42.039 49.756 29.906 48.583 26.579M49.791 47.348A0.5 0.5 0 0 1 49.688 47.443C48.668 50.075 47.153 52.735 44.986 55.292 44.94 55.559 44.896 55.823 44.843 56.091 46.933 54.046 51.364 50.531 59.072 47.871A40.7 40.7 0 0 0 63.851 40.405C53.911 42.729 49.833 47.3 49.791 47.348M40.832 34.312C38.259 37.558 36.399 40.703 35.077 43.684 36.993 46.527 40.706 52.894 42.041 61.172 46.889 48.999 42.303 37.468 40.832 34.312M44.355 58.482A0.6 0.6 0 0 1 44.24 58.603 31.3 31.3 0 0 1 42.35 63.576C42.492 65.019 42.561 66.51 42.526 68.043 44.367 65.361 48.638 60.32 57.027 55.561A47 47 0 0 0 60.23 48.79C48.763 52.561 44.399 58.423 44.355 58.482M33.504 43.597C26.095 57.443 27.107 68.514 29.301 75.41 31.173 81.295 34.193 85.219 35.499 86.728 48.285 66.26 36.331 47.52 33.504 43.597M42.485 70.509A0.6 0.6 0 0 1 42.374 70.672C41.893 75.753 40.288 81.219 36.905 86.818 53.383 80.894 57.858 61.113 58.746 56.023 46.273 62.768 42.523 70.432 42.485 70.509" fill="#ffffff" data-fill-palette-color="quaternary"></path></svg></g></svg></g><g></g></svg></g></svg></g></svg></g><defs></defs></svg><rect width="333.90454557049503" height="333.90454557049503" fill="none" stroke="none" visibility="hidden"></rect></g></svg></g></svg>